<svg xmlns="http://www.w3.org/2000/svg" viewBox="0 0 417 367">
  <g transform="translate(0,367) scale(0.1,-0.1)" fill="#74AC00" stroke="none">
    <path d="M1560 3648 c0 -54 94 -358 155 -503 95 -226 167 -320 347 -448 266
-189 487 -374 632 -529 41 -44 80 -78 88 -76 42 14 26 182 -37 377 -66 202
-214 464 -359 632 -141 164 -401 352 -698 504 -111 58 -128 63 -128 43z"/>
    <path d="M10 3210 c15 -52 70 -146 124 -211 100 -120 316 -282 661 -496 94
-58 173 -108 177 -112 4 -3 -88 -6 -205 -6 -203 0 -317 -13 -317 -35 0 -17 91
-129 158 -194 175 -171 471 -333 742 -407 l85 -23 -145 -17 c-167 -19 -370
-58 -370 -70 0 -18 201 -248 298 -340 122 -118 204 -177 314 -228 138 -65 190
-75 383 -76 94 0 220 2 281 5 120 5 144 -2 144 -44 0 -44 -61 -136 -185 -277
-181 -206 -439 -378 -697 -463 -105 -35 -237 -66 -283 -66 -123 0 218 -104
429 -130 147 -19 474 -8 611 19 603 122 1100 505 1371 1056 87 179 125 299
183 590 95 472 150 598 316 720 36 26 65 51 65 55 0 29 -139 63 -328 81 -396
38 -668 -98 -896 -445 -87 -133 -118 -166 -153 -166 -41 0 -63 18 -208 164
-477 483 -1009 794 -1689 987 -244 69 -720 159 -843 159 -30 0 -31 -1 -23 -30z
m3637 -881 c30 -29 38 -71 19 -108 -19 -36 -44 -51 -86 -51 -44 0 -69 16 -85
54 -41 97 75 176 152 105z"/>
  </g>
</svg>
